<mxfile host="65bd71144e">
    <diagram id="n7cRyCmh6ItZVgxvmuYI" name="Page-1">
        <mxGraphModel dx="843" dy="479" grid="1" gridSize="8" guides="1" tooltips="1" connect="1" arrows="1" fold="1" page="1" pageScale="1" pageWidth="1169" pageHeight="827" background="#ffffff" math="0" shadow="0">
            <root>
                <MiscDiagram modelType="MiscDiagram" lastModifiedUserId="dbush@ibm.com" description="" lastModified="2022-01-25T23:59:19Z" _id="miscdiagram_B1mi-XiVt" label="Business Automation Workflow on OCP" id="0">
                    <mxCell/>
                </MiscDiagram>
                <mxCell id="1" parent="0"/>
                <mxCell id="2" value="OpenShift Cluster" style="swimlane;fillColor=#f8cecc;strokeColor=#b85450;" parent="1" vertex="1">
                    <mxGeometry x="16" y="24" width="464" height="480" as="geometry"/>
                </mxCell>
                <mxCell id="14" value="Automation Foundation" style="swimlane;fontSize=10;fillColor=#d5e8d4;strokeColor=#82b366;" vertex="1" parent="2">
                    <mxGeometry x="24" y="272" width="416" height="88" as="geometry"/>
                </mxCell>
                <mxCell id="13" value="Process Mining" style="rounded=0;whiteSpace=wrap;html=1;fontSize=10;" vertex="1" parent="14">
                    <mxGeometry x="7" y="40" width="120" height="32" as="geometry"/>
                </mxCell>
                <mxCell id="12" value="Business Automation Insight" style="rounded=0;whiteSpace=wrap;html=1;fontSize=10;" vertex="1" parent="14">
                    <mxGeometry x="144" y="40" width="120" height="32" as="geometry"/>
                </mxCell>
                <mxCell id="15" value="Robotic Process Automation" style="rounded=0;whiteSpace=wrap;html=1;fontSize=10;" vertex="1" parent="14">
                    <mxGeometry x="288" y="40" width="120" height="32" as="geometry"/>
                </mxCell>
                <mxCell id="16" value="Platform Foundational Services" style="swimlane;fontSize=10;fillColor=#fff2cc;strokeColor=#d6b656;" vertex="1" parent="2">
                    <mxGeometry x="24" y="376" width="416" height="88" as="geometry"/>
                </mxCell>
                <mxCell id="17" value="Business Team Service" style="rounded=0;whiteSpace=wrap;html=1;fontSize=10;" vertex="1" parent="16">
                    <mxGeometry x="40" y="36" width="120" height="24" as="geometry"/>
                </mxCell>
                <mxCell id="18" value="Workflow Process Service" style="rounded=0;whiteSpace=wrap;html=1;fontSize=10;" vertex="1" parent="16">
                    <mxGeometry x="216" y="36" width="120" height="24" as="geometry"/>
                </mxCell>
                <mxCell id="19" value="Enterprise Records" style="rounded=0;whiteSpace=wrap;html=1;fontSize=10;" vertex="1" parent="2">
                    <mxGeometry x="24" y="216" width="120" height="24" as="geometry"/>
                </mxCell>
                <mxCell id="20" value="Automation Document Processing" style="rounded=0;whiteSpace=wrap;html=1;fontSize=10;" vertex="1" parent="2">
                    <mxGeometry x="24" y="152" width="120" height="24" as="geometry"/>
                </mxCell>
                <mxCell id="44" value="Content Collector for SAP applications" style="rounded=0;whiteSpace=wrap;html=1;fontSize=10;" vertex="1" parent="2">
                    <mxGeometry x="160" y="216" width="120" height="24" as="geometry"/>
                </mxCell>
                <mxCell id="45" value="Operational Decision Manager" style="rounded=0;whiteSpace=wrap;html=1;fontSize=10;" vertex="1" parent="2">
                    <mxGeometry x="160" y="152" width="120" height="24" as="geometry"/>
                </mxCell>
                <mxCell id="46" value="Business Automation Studio" style="rounded=0;whiteSpace=wrap;html=1;fontSize=10;" vertex="1" parent="2">
                    <mxGeometry x="304" y="40" width="120" height="24" as="geometry"/>
                </mxCell>
                <mxCell id="47" value="Business Automation Navigator" style="rounded=0;whiteSpace=wrap;html=1;fontSize=10;" vertex="1" parent="2">
                    <mxGeometry x="24" y="40" width="120" height="24" as="geometry"/>
                </mxCell>
                <mxCell id="48" value="Application Designer" style="rounded=0;whiteSpace=wrap;html=1;fontSize=10;" vertex="1" parent="2">
                    <mxGeometry x="160" y="40" width="120" height="24" as="geometry"/>
                </mxCell>
                <mxCell id="49" value="FileNet Content Manager" style="rounded=0;whiteSpace=wrap;html=1;fontSize=10;" vertex="1" parent="2">
                    <mxGeometry x="24" y="96" width="120" height="24" as="geometry"/>
                </mxCell>
                <mxCell id="50" value="Automation Workstream Services&amp;nbsp;" style="rounded=0;whiteSpace=wrap;html=1;fontSize=10;" vertex="1" parent="2">
                    <mxGeometry x="304" y="96" width="120" height="24" as="geometry"/>
                </mxCell>
                <mxCell id="51" value="Business Automation Workflow" style="rounded=0;whiteSpace=wrap;html=1;fontSize=10;" vertex="1" parent="2">
                    <mxGeometry x="304" y="152" width="120" height="24" as="geometry"/>
                </mxCell>
                <mxCell id="52" value="Business Automation Decision Service" style="rounded=0;whiteSpace=wrap;html=1;fontSize=10;" vertex="1" parent="2">
                    <mxGeometry x="160" y="96" width="120" height="24" as="geometry"/>
                </mxCell>
            </root>
        </mxGraphModel>
    </diagram>
</mxfile>